<?xml version="1.0" encoding="utf-8"?>
<!-- Generator: Adobe Illustrator 22.1.0, SVG Export Plug-In . SVG Version: 6.00 Build 0)  -->
<svg version="1.1" id="Layer_1" xmlns="http://www.w3.org/2000/svg" xmlns:xlink="http://www.w3.org/1999/xlink" x="0px" y="0px"
	 viewBox="0 0 742.9 62.4" style="enable-background:new 0 0 742.9 62.4;" xml:space="preserve">
<style type="text/css">
	.st0{fill:#58595B;}
</style>
<g>
	<path class="st0" d="M8.6,43.5C8.8,47.6,9.3,55.3,23,55.3c12.5,0,14-7.7,14-10.7c0-6.7-5.4-8-13.7-10.1c-9.1-2.2-13.2-3.2-16.3-5.3
		c-4.9-3.3-6.1-7.8-6.1-11.8C0.9,5.3,12.3,0,23.6,0c4,0,12,0.7,16.8,5.9c3.3,3.7,3.5,7.7,3.7,10.2h-8.6C35,8.6,28.7,6.9,22.8,6.9
		c-8.2,0-13.2,3.7-13.2,9.7c0,5.3,3.4,7.2,10.7,8.9c14.2,3.6,15.8,4,19.3,6.3c5.5,3.7,5.9,9.4,5.9,11.9c0,10.7-8.3,18.7-23.6,18.7
		c-4.5,0-13.8-0.7-18.6-6.8C0.1,51.2,0,46.4,0,43.5H8.6z"/>
	<path class="st0" d="M74.9,61V8.2H54.9v-7h48.3v7H83.1V61H74.9z"/>
	<path class="st0" d="M115.1,1.2h21.3c3.1,0,9.4,0,13.8,2.8c4.5,2.8,6.6,7.4,6.6,12.2c0,4.2-1.5,8-4.2,10.6
		c-2.6,2.6-5.2,3.4-7.1,3.9c5.7,1.5,8.3,4.1,9.1,11.5c0.9,7,1.4,12.2,3.7,18.8h-8.8c-1.4-4-2.2-11.3-2.7-15.9
		c-1-8.7-3.1-11.2-13.1-11.2h-10.4v27h-8.2V1.2z M123,26.9h13.1c0.9,0,5.6,0,7.9-1.3c1.2-0.6,4.1-2.8,4.1-7.7
		c0-9.7-8.6-9.7-11.9-9.7H123V26.9z"/>
	<path class="st0" d="M173.6,1.2h37.5v7h-29.2v18.6h27.8v6.9h-27.8v19.9h29.9V61h-38.2V1.2z"/>
	<path class="st0" d="M228.4,1.2H266v7h-29.3v18.6h27.8v6.9h-27.8v19.9h29.9V61h-38.2V1.2z"/>
	<path class="st0" d="M298.7,61V8.2h-20v-7H327v7h-20.1V61H298.7z"/>
	<path class="st0" d="M336.7,1.1h21l12.7,43.5L384,1.1h20.4V61h-12.7V9.6L375.3,61h-10.6l-16-51.4V61h-12V1.1z"/>
	<path class="st0" d="M451.4,1.1L472.2,61h-12.9l-4.3-12.9h-23.7L426.8,61h-12.3l21.6-59.9H451.4z M451.7,38.4l-8.3-25.5l-8.8,25.5
		H451.7z"/>
	<path class="st0" d="M515.9,20.6c-0.2-2.1-1-10.5-9.7-10.5c-9.5,0-13.5,9.9-13.5,22.3c0,3.6,0,20.5,12.5,20.5
		c5.4,0,10.6-3.4,10.8-11.4h13.5c-0.2,3.6-0.5,9.1-5.4,14.1c-5.3,5.5-12,6.7-17.4,6.7c-20.6,0-27.4-15.2-27.4-30.1
		c0-19,10.6-31.5,27.5-31.5c13.1,0,22.3,7.9,22.3,19.8H515.9z"/>
	<path class="st0" d="M541.5,1.1h12.8V25h22.6V1.1h13V61H577V34.7h-22.7V61h-12.8V1.1z"/>
	<path class="st0" d="M604.8,0.9h12.8V61h-12.8V0.9z"/>
	<path class="st0" d="M633,1.1h18.5L674,48.2V1.1H686V61h-17.6l-23.2-49.7V61H633V1.1z"/>
	<path class="st0" d="M701.8,1.1h40.1v9.7h-27.2v14.3h25.5v9.7h-25.5v16.2h28.2V61h-41V1.1z"/>
</g>
</svg>
